<svg id="Layer_1" data-name="Layer 1" xmlns="http://www.w3.org/2000/svg" xmlns:xlink="http://www.w3.org/1999/xlink" viewBox="0 0 329.04 393.86"><defs><style>.cls-1{fill:url(#linear-gradient);}.cls-2{fill:url(#linear-gradient-2);}.cls-3{fill:url(#linear-gradient-3);}.cls-4{fill:url(#linear-gradient-4);}</style><linearGradient id="linear-gradient" x1="296.72" y1="378.99" x2="462.16" y2="378.99" gradientUnits="userSpaceOnUse"><stop offset="0" stop-color="#be1e2d"/><stop offset="1" stop-color="#da1c5c"/></linearGradient><linearGradient id="linear-gradient-2" x1="286.58" y1="549.51" x2="462.16" y2="549.51" gradientUnits="userSpaceOnUse"><stop offset="0" stop-color="#2e3192"/><stop offset="1" stop-color="#92278f"/></linearGradient><linearGradient id="linear-gradient-3" x1="96.2" y1="486.66" x2="271.98" y2="486.66" xlink:href="#linear-gradient-2"/><linearGradient id="linear-gradient-4" x1="133.12" y1="301.61" x2="324.74" y2="301.61" xlink:href="#linear-gradient-2"/></defs><path class="cls-1" d="M462.16,340.18V496.44c0,.36,0,.71,0,1.06A27.56,27.56,0,0,1,434.59,524h-2.3a27.58,27.58,0,0,1-27.58-27.57V358l-108-62.35L311,287.42A27.57,27.57,0,0,0,321,249.75l-1.15-2a27.54,27.54,0,0,0-23-13.78,27.43,27.43,0,0,1,14.32,3.69l132.43,76.46A27.57,27.57,0,0,1,462.16,340.18Z" transform="translate(-133.12 -233.97)"/><path class="cls-2" d="M450.39,521.31l-128,89.57a27.41,27.41,0,0,1-18.84,4.81,27.57,27.57,0,0,0-3.55-38l-13.38-11.57a29,29,0,0,1,2.85-2.28l115.28-80.65v13.28A27.58,27.58,0,0,0,432.29,524h2.3a27.56,27.56,0,0,0,27.54-26.51A27.53,27.53,0,0,1,450.39,521.31Z" transform="translate(-133.12 -233.97)"/><path class="cls-3" d="M303.51,615.69c-.23.29-.47.58-.71.86l-1.51,1.74a27.57,27.57,0,0,1-38.89,2.84L144.17,519a32.3,32.3,0,0,1-10.44-22.52v-151a27.75,27.75,0,0,0,3.08,8l1.15,2a27.59,27.59,0,0,0,37.67,10.09l15.55-9V483.65l95.4,82.44L300,577.66A27.57,27.57,0,0,1,303.51,615.69Z" transform="translate(-133.12 -233.97)"/><path class="cls-4" d="M311,287.42l-14.23,8.22L191.18,356.57l-15.55,9A27.59,27.59,0,0,1,138,355.46l-1.15-2a27.57,27.57,0,0,1,10.1-37.67l135.32-78.13A27.43,27.43,0,0,1,296.55,234h.33a27.54,27.54,0,0,1,23,13.78l1.15,2A27.57,27.57,0,0,1,311,287.42Z" transform="translate(-133.12 -233.97)"/></svg>