<svg id="Layer_1" data-name="Layer 1" xmlns="http://www.w3.org/2000/svg" xmlns:xlink="http://www.w3.org/1999/xlink" viewBox="0 0 299.74 282.69"><defs><style>.cls-1{fill:none;stroke:#19191c;stroke-miterlimit:10;}.cls-2{fill:url(#linear-gradient);}.cls-3{fill:#212121;}.cls-4{fill:url(#linear-gradient-2);}.cls-5{fill:url(#linear-gradient-3);}.cls-6{fill:url(#linear-gradient-4);}.cls-7{fill:url(#linear-gradient-5);}.cls-8{fill:url(#linear-gradient-6);}.cls-9{fill:#53364a;}.cls-10{fill:url(#linear-gradient-7);}</style><linearGradient id="linear-gradient" x1="140.52" y1="621.55" x2="320.46" y2="509.65" gradientUnits="userSpaceOnUse"><stop offset="0.19" stop-color="#fff"/><stop offset="0.93" stop-color="#f26522"/></linearGradient><linearGradient id="linear-gradient-2" x1="258.33" y1="441.2" x2="270.88" y2="303.21" gradientUnits="userSpaceOnUse"><stop offset="0.15" stop-color="#fff"/><stop offset="0.56" stop-color="#f26522"/></linearGradient><linearGradient id="linear-gradient-3" x1="56.78" y1="136.61" x2="97.59" y2="210.42" gradientUnits="userSpaceOnUse"><stop offset="0.13" stop-color="#fff"/><stop offset="0.8" stop-color="#f26522"/></linearGradient><linearGradient id="linear-gradient-4" x1="106.56" y1="123.95" x2="-79.65" y2="193.71" gradientUnits="userSpaceOnUse"><stop offset="0" stop-color="#fff"/><stop offset="0.45" stop-color="#f26522"/></linearGradient><linearGradient id="linear-gradient-5" x1="190.75" y1="394.3" x2="190.99" y2="370.38" xlink:href="#linear-gradient-4"/><linearGradient id="linear-gradient-6" x1="192.21" y1="557.1" x2="189.26" y2="590.77" xlink:href="#linear-gradient-4"/><linearGradient id="linear-gradient-7" x1="179.42" y1="513.32" x2="292.96" y2="384.45" gradientUnits="userSpaceOnUse"><stop offset="0.12" stop-color="#fff"/><stop offset="0.13" stop-color="#f6f6f6"/><stop offset="0.19" stop-color="#cbcbcc"/><stop offset="0.24" stop-color="#a6a6a7"/><stop offset="0.3" stop-color="#878687"/><stop offset="0.37" stop-color="#6d6c6e"/><stop offset="0.44" stop-color="#59595a"/><stop offset="0.53" stop-color="#4c4b4c"/><stop offset="0.63" stop-color="#434244"/><stop offset="0.81" stop-color="#414042"/></linearGradient></defs><path class="cls-1" d="M195.06,378.32c-.8,6.59-2.15,14.89-4.11,14.92-1.59,0-3.1-5.43-4.23-11Z" transform="translate(-125.56 -335.38)"/><path class="cls-2" d="M367,383.6,202.16,491.37,306.87,598.21,420,544.88V408.57ZM374.29,514l-49.43,23.31L275.43,514V467.36l49.43-23.31,49.43,23.31Z" transform="translate(-125.56 -335.38)"/><path class="cls-3" d="M371.47,380.67l-26.74-12.61-69.3-32.68-89.58,42.24-.15.07-60.14,28.36V547.4l60.14,28.36.21.1,89.52,42.21,26.45-12.47,8.36-3.94L425.3,547.4V406.05ZM420,544.88,306.87,598.21l-8.37,3.95L275.43,613l-80.19-37.82-.23-.11,0,0-8.3-3.91-.06,0-.9-.43-54.8-25.84V408.57l54.8-25.84,1-.48,8.34-3.93.18-.09,80.19-37.82,58.37,27.53L367,383.6l53,25Z" transform="translate(-125.56 -335.38)"/><path class="cls-4" d="M333.8,367.94c-54.05.44-103.93,16.19-138.56,44.24V378.23l80.19-37.82Z" transform="translate(-125.56 -335.38)"/><polygon class="cls-5" points="172.94 266.78 149.87 277.65 69.68 239.84 69.68 161.41 172.94 266.78"/><polygon class="cls-6" points="60.14 47.35 60.14 235.34 5.34 209.5 5.34 73.19 60.14 47.35"/><path class="cls-7" d="M195.06,378.32c-.8,6.59-2.15,14.89-4.11,14.92-1.59,0-3.1-5.43-4.23-11Z" transform="translate(-125.56 -335.38)"/><path class="cls-8" d="M195,575.11l0,0-8.3-3.91-.06,0c1.91-12,3.36-14.21,4.25-14.21S193.4,559.6,195,575.11Z" transform="translate(-125.56 -335.38)"/><path class="cls-9" d="M195.24,575.22v.4l-.23-.11c0-.14,0-.28,0-.42-1.59-15.14-3.12-17.74-4.11-17.75s-2.31,2.12-4.19,13.84l-.06.37-.9-.43v-.4l.9.43c1.91-12,3.36-14.21,4.25-14.21s2.55,2.66,4.16,18.17Z" transform="translate(-125.56 -335.38)"/><path class="cls-3" d="M195.24,378.63V575.22l-.23-.11c-1.61-15.51-3.16-18.16-4.16-18.17s-2.34,2.17-4.25,14.21l-.9-.43V383.13l1-.48c1.13,5.56,2.64,11,4.23,11,2,0,3.31-8.33,4.11-14.92Z" transform="translate(-125.56 -335.38)"/><polygon class="cls-3" points="181.31 262.83 172.94 266.78 69.68 161.41 69.68 160.5 76.59 155.98 181.31 262.83"/><path class="cls-10" d="M367,383.6,202.16,491.37l-6.92,4.51v-83.7c34.63-28.05,84.51-43.8,138.56-44.24Z" transform="translate(-125.56 -335.38)"/></svg>