<?xml version="1.0" encoding="utf-8"?>
<!-- Generator: Adobe Illustrator 25.0.1, SVG Export Plug-In . SVG Version: 6.00 Build 0)  -->
<svg version="1.1" id="Layer_1" xmlns="http://www.w3.org/2000/svg" xmlns:xlink="http://www.w3.org/1999/xlink" x="0px" y="0px"
	 viewBox="0 0 595.28 841.89" style="enable-background:new 0 0 595.28 841.89;" xml:space="preserve">
<style type="text/css">
	.st0{fill:none;stroke:#19191C;stroke-miterlimit:10;}
	.st1{fill:url(#SVGID_1_);}
	.st2{fill:#212121;}
	.st3{fill:url(#SVGID_2_);}
	.st4{fill:url(#SVGID_3_);}
	.st5{fill:url(#SVGID_4_);}
	.st6{fill:url(#SVGID_5_);}
	.st7{fill:url(#SVGID_6_);}
	.st8{fill:#53364A;}
	.st9{fill:url(#SVGID_7_);}
</style>
<path class="st0" d="M195.06,378.32c-0.8,6.59-2.15,14.9-4.11,14.92c-1.59,0.02-3.1-5.43-4.23-10.99L195.06,378.32z"/>
<linearGradient id="SVGID_1_" gradientUnits="userSpaceOnUse" x1="140.518" y1="621.5485" x2="320.4584" y2="509.6491">
	<stop  offset="0.1911" style="stop-color:#FFFFFF"/>
	<stop  offset="0.9257" style="stop-color:#F26522"/>
</linearGradient>
<path class="st1" d="M367,383.6L202.16,491.37l104.71,106.85l113.09-53.33V408.57L367,383.6z M374.29,513.98l-49.43,23.31
	l-49.43-23.31v-46.62l49.43-23.31l49.43,23.31V513.98z"/>
<path class="st2" d="M371.47,380.67l-26.74-12.61l-69.3-32.68l-89.58,42.24l-0.15,0.07l-60.14,28.36V547.4l60.14,28.36l0.21,0.1
	l89.52,42.21l26.45-12.47l8.36-3.95L425.3,547.4V406.05L371.47,380.67z M419.96,544.88l-113.09,53.33l-8.37,3.95l-23.07,10.88
	l-80.18-37.81l-0.24-0.11l-0.04-0.02l-8.3-3.91l-0.06-0.03l-0.9-0.43l-54.8-25.84V408.57l54.8-25.84l1.02-0.48l8.34-3.93l0.18-0.09
	l80.18-37.81l58.38,27.53L367,383.6l52.96,24.98V544.88z"/>
<linearGradient id="SVGID_2_" gradientUnits="userSpaceOnUse" x1="258.3263" y1="441.2009" x2="270.8831" y2="303.2108">
	<stop  offset="0.1529" style="stop-color:#FFFFFF"/>
	<stop  offset="0.5557" style="stop-color:#F26522"/>
</linearGradient>
<path class="st3" d="M333.8,367.94c-54.05,0.44-103.93,16.19-138.56,44.23v-33.95l80.18-37.81L333.8,367.94z"/>
<linearGradient id="SVGID_3_" gradientUnits="userSpaceOnUse" x1="182.3394" y1="471.9956" x2="223.1521" y2="545.7982">
	<stop  offset="0.129" style="stop-color:#FFFFFF"/>
	<stop  offset="0.801" style="stop-color:#F26522"/>
</linearGradient>
<polygon class="st4" points="298.5,602.16 275.43,613.04 195.24,575.22 195.24,496.79 "/>
<linearGradient id="SVGID_4_" gradientUnits="userSpaceOnUse" x1="232.1176" y1="459.3365" x2="45.9074" y2="529.0927">
	<stop  offset="0" style="stop-color:#FFFFFF"/>
	<stop  offset="0.4464" style="stop-color:#F26522"/>
</linearGradient>
<polygon class="st5" points="185.7,382.73 185.7,570.72 130.9,544.88 130.9,408.57 "/>
<linearGradient id="SVGID_5_" gradientUnits="userSpaceOnUse" x1="190.7466" y1="394.2961" x2="190.9943" y2="370.3759">
	<stop  offset="0" style="stop-color:#FFFFFF"/>
	<stop  offset="0.4464" style="stop-color:#F26522"/>
</linearGradient>
<path class="st6" d="M195.06,378.32c-0.8,6.59-2.15,14.9-4.11,14.92c-1.59,0.02-3.1-5.43-4.23-10.99L195.06,378.32z"/>
<linearGradient id="SVGID_6_" gradientUnits="userSpaceOnUse" x1="192.2096" y1="557.0978" x2="189.262" y2="590.7675">
	<stop  offset="0" style="stop-color:#FFFFFF"/>
	<stop  offset="0.4464" style="stop-color:#F26522"/>
</linearGradient>
<path class="st7" d="M195.01,575.11l-0.04-0.02l-8.3-3.91l-0.06-0.03c1.91-12.04,3.35-14.22,4.25-14.22
	C191.85,556.95,193.4,559.6,195.01,575.11z"/>
<path class="st8" d="M195.24,575.22v0.4l-0.24-0.11c-0.01-0.14-0.03-0.28-0.04-0.42c-1.59-15.14-3.12-17.75-4.11-17.76
	c-0.89,0-2.31,2.13-4.19,13.84c-0.02,0.12-0.04,0.25-0.06,0.37l-0.9-0.43v-0.4l0.9,0.43c1.91-12.04,3.35-14.22,4.25-14.22
	c0.99,0.01,2.55,2.66,4.16,18.18L195.24,575.22z"/>
<path class="st2" d="M195.24,378.63v196.59l-0.24-0.11c-1.61-15.52-3.16-18.17-4.16-18.18c-0.9,0-2.34,2.17-4.25,14.22l-0.9-0.43
	V383.13l1.02-0.48c1.13,5.56,2.63,11.01,4.23,10.99c1.96-0.03,3.32-8.33,4.11-14.92L195.24,378.63z"/>
<polygon class="st2" points="306.87,598.21 298.5,602.16 195.24,496.79 195.24,495.88 202.16,491.37 "/>
<linearGradient id="SVGID_7_" gradientUnits="userSpaceOnUse" x1="179.4221" y1="513.3195" x2="292.9622" y2="384.4471">
	<stop  offset="0.1215" style="stop-color:#FFFFFF"/>
	<stop  offset="0.1322" style="stop-color:#F6F6F6"/>
	<stop  offset="0.1853" style="stop-color:#CBCBCC"/>
	<stop  offset="0.2428" style="stop-color:#A6A6A7"/>
	<stop  offset="0.3041" style="stop-color:#878687"/>
	<stop  offset="0.3704" style="stop-color:#6D6C6E"/>
	<stop  offset="0.4434" style="stop-color:#59595A"/>
	<stop  offset="0.5269" style="stop-color:#4C4B4C"/>
	<stop  offset="0.63" style="stop-color:#434244"/>
	<stop  offset="0.8108" style="stop-color:#414042"/>
</linearGradient>
<path class="st9" d="M367,383.6L202.16,491.37l-6.91,4.52v-83.71c34.63-28.04,84.51-43.8,138.56-44.23L367,383.6z"/>
</svg>
